<svg width="48" height="48" viewBox="0 0 48 48" fill="none" xmlns="http://www.w3.org/2000/svg">
<path fill-rule="evenodd" clip-rule="evenodd" d="M40.3201 12.36C42.9048 12.36 45.0001 10.2647 45.0001 7.68C45.0001 5.09531 42.9048 3 40.3201 3C37.7354 3 35.6401 5.09531 35.6401 7.68C35.6401 10.2647 37.7354 12.36 40.3201 12.36ZM40.3201 15.36C44.5617 15.36 48.0001 11.9215 48.0001 7.68C48.0001 3.43845 44.5617 0 40.3201 0C36.0786 0 32.6401 3.43845 32.6401 7.68C32.6401 11.9215 36.0786 15.36 40.3201 15.36Z" fill="#1B344B"/>
<path fill-rule="evenodd" clip-rule="evenodd" d="M40.3201 44.9999C42.9048 44.9999 45.0001 42.9046 45.0001 40.3199C45.0001 37.7352 42.9048 35.6399 40.3201 35.6399C37.7354 35.6399 35.6401 37.7352 35.6401 40.3199C35.6401 42.9046 37.7354 44.9999 40.3201 44.9999ZM40.3201 47.9999C44.5617 47.9999 48.0001 44.5614 48.0001 40.3199C48.0001 36.0783 44.5617 32.6399 40.3201 32.6399C36.0786 32.6399 32.6401 36.0783 32.6401 40.3199C32.6401 44.5614 36.0786 47.9999 40.3201 47.9999Z" fill="#1B344B"/>
<path fill-rule="evenodd" clip-rule="evenodd" d="M7.68 12.36C10.2647 12.36 12.36 10.2647 12.36 7.68C12.36 5.09531 10.2647 3 7.68 3C5.09531 3 3 5.09531 3 7.68C3 10.2647 5.09531 12.36 7.68 12.36ZM7.68 15.36C11.9215 15.36 15.36 11.9215 15.36 7.68C15.36 3.43845 11.9215 0 7.68 0C3.43845 0 0 3.43845 0 7.68C0 11.9215 3.43845 15.36 7.68 15.36Z" fill="#1B344B"/>
<path fill-rule="evenodd" clip-rule="evenodd" d="M7.68 44.9999C10.2647 44.9999 12.36 42.9046 12.36 40.3199C12.36 37.7352 10.2647 35.6399 7.68 35.6399C5.09531 35.6399 3 37.7352 3 40.3199C3 42.9046 5.09531 44.9999 7.68 44.9999ZM7.68 47.9999C11.9215 47.9999 15.36 44.5614 15.36 40.3199C15.36 36.0783 11.9215 32.6399 7.68 32.6399C3.43845 32.6399 0 36.0783 0 40.3199C0 44.5614 3.43845 47.9999 7.68 47.9999Z" fill="#1B344B"/>
<path fill-rule="evenodd" clip-rule="evenodd" d="M7.36002 17.0601C8.18845 17.0601 8.86002 17.7316 8.86002 18.5601V26.1387L10.1394 24.8594C10.7251 24.2736 11.6749 24.2736 12.2607 24.8594C12.8465 25.4452 12.8465 26.3949 12.2607 26.9807L8.42068 30.8207C7.83489 31.4065 6.88515 31.4065 6.29936 30.8207L2.45936 26.9807C1.87357 26.3949 1.87357 25.4452 2.45936 24.8594C3.04515 24.2736 3.99489 24.2736 4.58068 24.8594L5.86002 26.1387V18.5601C5.86002 17.7316 6.53159 17.0601 7.36002 17.0601Z" fill="#1B344B"/>
<path fill-rule="evenodd" clip-rule="evenodd" d="M40.32 17.0601C41.1484 17.0601 41.82 17.7316 41.82 18.5601V26.1387L43.0993 24.8594C43.6851 24.2736 44.6349 24.2736 45.2206 24.8594C45.8064 25.4452 45.8064 26.3949 45.2206 26.9807L41.3806 30.8207C40.7949 31.4065 39.8451 31.4065 39.2593 30.8207L35.4193 26.9807C34.8335 26.3949 34.8335 25.4452 35.4193 24.8594C36.0051 24.2736 36.9549 24.2736 37.5406 24.8594L38.82 26.1387V18.5601C38.82 17.7316 39.4916 17.0601 40.32 17.0601Z" fill="#1B344B"/>
<path fill-rule="evenodd" clip-rule="evenodd" d="M31.2598 40.32C31.2598 41.1484 30.5882 41.82 29.7598 41.82L22.1811 41.82L23.4604 43.0993C24.0462 43.6851 24.0462 44.6349 23.4604 45.2206C22.8746 45.8064 21.9249 45.8064 21.3391 45.2206L17.4991 41.3806C16.9133 40.7949 16.9133 39.8451 17.4991 39.2593L21.3391 35.4193C21.9249 34.8335 22.8746 34.8335 23.4604 35.4193C24.0462 36.0051 24.0462 36.9549 23.4604 37.5406L22.1811 38.82L29.7598 38.82C30.5882 38.82 31.2598 39.4916 31.2598 40.32Z" fill="#1B344B"/>
<path fill-rule="evenodd" clip-rule="evenodd" d="M33.2908 14.6194C33.8766 15.2051 33.8766 16.1549 33.2908 16.7407L19.7767 30.2553L21.586 30.2553C22.4145 30.2553 23.086 30.9269 23.086 31.7553C23.086 32.5838 22.4145 33.2553 21.586 33.2553L16.1554 33.2553C15.7576 33.2553 15.3761 33.0973 15.0948 32.816C14.8135 32.5347 14.6554 32.1532 14.6554 31.7553L14.6555 26.3248C14.6555 25.4963 15.327 24.8248 16.1555 24.8248C16.9839 24.8248 17.6555 25.4963 17.6555 26.3248L17.6554 28.1339L31.1694 14.6194C31.7552 14.0336 32.705 14.0336 33.2908 14.6194Z" fill="#1B344B"/>
</svg>
